<svg width="120" height="120" viewBox="0 0 120 120" fill="none" xmlns="http://www.w3.org/2000/svg">
<circle cx="60" cy="60" r="60" fill="#460000"/>
<g clip-path="url(#clip0_4_88)">
<path d="M71.7068 72.6656C71.7061 72.6656 71.7055 72.6656 71.7048 72.6656C67.983 72.6656 64.9537 75.7039 64.9517 79.4391C64.9497 83.1231 68.0192 86.2167 71.7019 86.2167C75.4235 86.2167 78.4531 83.1783 78.4549 79.4433C78.4572 75.7595 75.3917 72.6667 71.7068 72.6656ZM71.702 84.4589C68.9827 84.4589 66.7082 82.1598 66.7095 79.4399C66.711 76.6733 68.9515 74.4233 71.7048 74.4233C74.4239 74.4233 76.6985 76.7226 76.6971 79.4423C76.6957 82.2088 74.4551 84.4589 71.702 84.4589Z" fill="white"/>
<path d="M90 69.7737C90.0002 69.2923 89.5833 68.8948 89.1223 68.8943L75.0776 68.8748C77.9487 64.7369 79.4585 59.9077 79.4585 54.8079C79.4585 49.841 77.9873 45.212 75.4597 41.3321L77.1039 40.1827L80.2302 41.3376C80.5068 41.4354 80.7751 41.4014 81.035 41.2357L87.5736 36.7087C88.148 36.311 88.0332 35.4037 87.3779 35.1616L85.405 34.4328L86.8117 33.4588C87.746 32.8118 86.7453 31.3667 85.811 32.0135L84.4058 32.9864L84.4198 30.8828C84.4244 30.1838 83.6153 29.7567 83.0406 30.1544L76.502 34.6814C76.2666 34.8444 76.1254 35.1119 76.1235 35.3983L76.1013 38.7388L74.449 39.8939C69.9299 33.9256 62.7723 30.0625 54.7293 30.0625C41.0936 30.0626 30 41.1633 30 54.8079C30 60.4825 31.9679 66.0269 35.5414 70.4195C38.9438 74.6017 43.654 77.5798 48.8544 78.85V81.5923H39.9683C39.4829 81.5923 39.0894 81.9858 39.0894 82.4712V89.0827C39.0894 89.5681 39.4829 89.9616 39.9683 89.9616L75.3083 89.9982C76.4133 89.9982 76.4142 88.241 75.3093 88.2403L60.3771 88.2321V75.8597C60.3771 75.3743 59.9836 74.9808 59.4982 74.9808H56.1812C58.0498 74.2985 59.4521 72.6333 59.7629 70.6114L83.6575 70.6446C83.837 71.795 84.3707 72.8561 85.2063 73.6956C86.0373 74.5306 87.087 75.066 88.2257 75.2507V83.6455C85.8933 84.0357 84.0241 85.8945 83.6496 88.2403H80.9926C79.8563 88.2403 79.8563 89.9982 80.9926 89.9982H89.0625H89.111C89.5963 89.9982 89.9998 89.605 90 89.1197V69.7791C90 69.7773 90 69.7756 90 69.7737ZM77.8782 35.8668L82.6509 32.5625L82.637 34.6662C82.6342 35.0308 82.8708 35.3711 83.2116 35.4966L85.1843 36.2254L80.4105 39.5303L77.8602 38.5881L77.8782 35.8668ZM77.7007 54.8079C77.7007 59.9614 76.0411 64.8169 72.8999 68.8717L66.7752 68.8632C69.3948 66.6054 71.3743 63.6125 72.4005 60.329C73.5205 56.7453 73.5131 52.8006 72.38 49.2216C71.8957 47.6919 71.214 46.2406 70.3607 44.8966L74.019 42.3391C76.347 45.9334 77.7007 50.2152 77.7007 54.8079ZM36.905 69.3102C33.5858 65.2301 31.7578 60.0797 31.7578 54.8079C31.7578 42.1326 42.0628 31.8204 54.7293 31.8204C62.1772 31.8204 68.8075 35.3868 73.0076 40.9016L69.35 43.4585C68.5895 42.4796 67.73 41.5724 66.7787 40.7542C64.1194 38.4671 60.8907 36.9891 57.4419 36.4799C53.8733 35.953 50.2648 36.4689 47.0067 37.9716C45.9749 38.4475 46.7111 40.0442 47.7429 39.5678C50.6481 38.2279 54.0014 37.7489 57.1853 38.2189C60.3047 38.6794 63.2256 40.017 65.6325 42.087C66.4718 42.8087 67.2314 43.6074 67.9069 44.4674L64.2457 47.0268C61.9897 44.2656 58.5618 42.5 54.7294 42.5C47.9517 42.5 42.4376 48.0212 42.4376 54.8078C42.4376 61.5945 47.9516 67.1158 54.7294 67.1158C61.5071 67.1158 67.0213 61.5945 67.0213 54.8078C67.0213 52.4885 66.377 50.3173 65.2587 48.4634L68.919 45.9045C69.6717 47.1023 70.2742 48.3932 70.7044 49.7521C71.7299 52.9913 71.7364 56.5613 70.7229 59.8046C69.6947 63.0945 67.6083 66.0632 64.848 68.1639C64.5292 68.4066 64.1974 68.6398 63.8617 68.8591L54.2592 68.8457C53.7205 68.8961 53.4272 69.1908 53.3791 69.7298L53.3897 71.5214C51.0709 71.3346 48.7903 70.6602 46.752 69.5502C42.2916 67.1215 39.0864 62.6821 38.2215 57.6734C37.2867 52.2594 39.1327 46.6028 43.0718 42.7764C43.887 41.9846 42.6622 40.7237 41.8471 41.5155C37.4938 45.7443 35.4555 51.9876 36.489 57.9727C37.4436 63.5015 40.9869 68.4128 45.911 71.0942C48.2088 72.3454 50.7847 73.0965 53.3998 73.2855L53.4097 74.9807H49.7333C49.2479 74.9807 48.8544 75.3742 48.8544 75.8596V77.0366C44.19 75.8025 39.9751 73.084 36.905 69.3102ZM53.9484 55.2978C54.3266 55.7107 54.7345 55.7829 55.1723 55.5146L58.6779 53.0639C58.913 53.598 59.0446 54.1878 59.0446 54.808C59.0446 57.1963 57.1086 59.1394 54.7293 59.1394C52.3499 59.1394 50.4141 57.1963 50.4141 54.808C50.4141 52.4198 52.3499 50.4767 54.7293 50.4767C55.8593 50.4767 56.8888 50.9155 57.6588 51.6316L54.1652 54.0739C53.7674 54.3518 53.6704 54.8999 53.9484 55.2978ZM54.7291 48.7187C51.3805 48.7187 48.6561 51.4504 48.6561 54.8079C48.6561 58.1656 51.3805 60.8971 54.7291 60.8971C58.0779 60.8971 60.8023 58.1655 60.8023 54.8079C60.8023 53.8129 60.5614 52.8736 60.1375 52.0434L63.8139 49.4733C64.7343 51.0395 65.2631 52.8628 65.2631 54.8079C65.2631 60.6253 60.5375 65.3581 54.729 65.3581C48.9206 65.3581 44.195 60.6253 44.195 54.8079C44.195 48.9906 48.9205 44.2579 54.729 44.2579C57.9662 44.2579 60.8666 45.7283 62.8005 48.0369L59.1211 50.6091C58.0145 49.4459 56.4554 48.7187 54.7291 48.7187ZM50.6122 83.3501H58.6193V84.898H50.6122V83.3501ZM58.6193 81.5923H50.6122V80.0444H58.6193V81.5923ZM40.8472 83.3501H48.8543V84.898H40.8472V83.3501ZM48.8544 88.2039H40.8472V86.656H48.8543V88.2039H48.8544ZM50.6122 86.656H58.6193V88.2039H50.6122V86.656ZM58.6193 78.2866H50.6122V76.7386H58.6193V78.2866ZM55.1727 73.4521L55.1742 70.6422L57.967 70.643C57.6378 72.0283 56.5508 73.121 55.1727 73.4521ZM86.4523 72.4557C85.95 71.9509 85.6068 71.3289 85.4479 70.6511L88.2396 70.6519L88.2311 73.4604C87.5631 73.2991 86.9502 72.956 86.4523 72.4557ZM85.4398 88.2403C85.7657 86.868 86.8355 85.7836 88.1947 85.4411L88.1863 88.2403H85.4398Z" fill="white"/>
</g>
<defs>
<clipPath id="clip0_4_88">
<rect width="60" height="60" fill="white" transform="translate(30 30)"/>
</clipPath>
</defs>
</svg>
