<svg width="120" height="120" viewBox="0 0 120 120" fill="none" xmlns="http://www.w3.org/2000/svg">
<circle cx="60" cy="60" r="60" fill="#460000"/>
<g clip-path="url(#clip0_4_84)">
<path d="M89.4713 57.8122C89.4483 57.3501 89.0537 56.9706 88.5888 56.9706H78.3974L80.0511 53.199C80.144 52.9871 80.1492 52.7374 80.0652 52.5218L79.2186 50.3484C79.6899 50.1754 80.1468 49.9641 80.5842 49.7153L82.7069 51.0281C83.0994 51.2469 83.473 51.1945 83.8278 50.871L85.8803 48.6165C86.1706 48.2977 86.1891 47.8162 85.9242 47.476L84.4 45.5188C84.5868 45.1018 84.7413 44.6719 84.8624 44.2327L87.2964 43.6708C87.7147 43.5743 88.0035 43.1916 87.9818 42.7629L87.8285 39.729C87.8069 39.3003 87.4809 38.949 87.0552 38.895L84.5768 38.5813C84.4122 38.1566 84.2151 37.7446 83.9871 37.3485L85.3062 35.2477C85.5354 34.8825 85.4686 34.4053 85.1476 34.1174L82.8783 32.0813C82.5608 31.7964 82.0855 31.7783 81.7472 32.038L79.7677 33.5581C79.3448 33.3712 78.909 33.2167 78.4637 33.0962L77.9006 30.6846C77.803 30.2674 77.4198 29.9773 76.9933 30.0014L73.9371 30.1558C73.5092 30.1774 73.1582 30.5021 73.1033 30.927L72.7862 33.3831C72.3552 33.548 71.9372 33.7454 71.5354 33.9742L69.4126 32.6614C69.05 32.4372 68.5789 32.503 68.2917 32.8185L66.2393 35.073C65.949 35.3918 65.9304 35.8733 66.1955 36.2135L67.7195 38.1706C67.5743 38.4949 67.4505 38.8274 67.3448 39.1656L63.196 37.3466C62.6812 37.1763 62.2923 37.3281 62.0292 37.8021L58.5077 45.834V32.0744C58.5077 30.9292 56.7362 30.9292 56.7362 32.0744V35.9542C50.6653 36.2108 45.0661 39.4184 41.7049 44.5885C41.1014 45.5167 42.5345 46.5623 43.1901 45.5541C46.2246 40.8866 51.2662 37.9825 56.7362 37.727V75.2279H51.2746C50.5295 75.2279 49.9234 74.618 49.9234 73.8683V70.8314C49.9234 70.5055 49.7445 70.206 49.4576 70.0514C43.8208 67.0158 40.3566 61.1446 40.4171 54.729C40.4329 53.0523 40.6933 51.394 41.1911 49.8C41.5324 48.7068 39.8415 48.1785 39.5002 49.2719C38.9506 51.0315 38.6632 52.862 38.6458 54.7124C38.5809 61.6091 42.2099 67.9358 48.152 71.352V73.8683C48.152 75.2863 49.0973 76.4864 50.3889 76.8703V81.0665C50.3889 83.7761 52.5934 85.9805 55.303 85.9805H56.7363V89.1141C56.7363 90.2593 58.5078 90.2593 58.5078 89.1141V67.9137L67.5331 71.8708L67.3301 73.0277C67.0321 73.1289 66.7412 73.2485 66.4591 73.386L64.8686 72.2779C64.5165 72.0325 64.0391 72.0747 63.7356 72.3786L61.9862 74.1296C61.6828 74.4332 61.6409 74.9107 61.8865 75.2626L62.9962 76.852C62.859 77.1344 62.7396 77.4253 62.6386 77.7235L60.7446 78.0577C60.3199 78.1327 60.0111 78.5025 60.0128 78.9336L60.0229 81.4178C60.0247 81.8443 60.3301 82.209 60.7496 82.2856L62.655 82.6334C62.7591 82.9355 62.882 83.2304 63.023 83.5165L61.9289 85.095C61.6849 85.4471 61.7278 85.9235 62.031 86.2262L63.7947 87.9884C64.0976 88.2911 64.5739 88.3337 64.926 88.0892L66.5036 86.9938C66.7897 87.1346 67.0848 87.2572 67.3869 87.361L67.7364 89.2662C67.8134 89.6857 68.1784 89.9908 68.6048 89.9921L71.0891 89.9999H71.0919C71.5218 89.9999 71.8899 89.691 71.9643 89.2673L72.2969 87.3729C72.595 87.2717 72.8858 87.1521 73.1679 87.0146L74.7582 88.1228C75.1104 88.3683 75.5879 88.326 75.8912 88.022L77.6406 86.2711C77.944 85.9674 77.9859 85.4899 77.7403 85.138L76.6306 83.5486C76.7679 83.2662 76.8872 82.9753 76.9882 82.6771L78.8822 82.3429C79.3068 82.2679 79.6157 81.8981 79.6141 81.4671L79.604 78.9828C79.6023 78.5563 79.2969 78.1917 78.8774 78.115L77.0863 77.7881C79.6213 77.7768 82.1959 77.7764 84.6992 77.7764C84.9923 77.8314 85.263 77.7438 85.5112 77.5134L89.2341 73.5548C89.3886 73.3904 89.4747 73.1734 89.4747 72.9479V57.8563C89.4746 57.8414 89.472 57.827 89.4713 57.8122V57.8122ZM86.5398 58.7421L84.5215 60.8881H71.8134L73.8317 58.7421H86.5398ZM76.544 43.4827C76.4606 43.2683 76.2854 43.0854 76.0744 42.9931L72.7125 41.5191C72.873 39.9048 74.2084 38.6012 75.8915 38.5161C77.7463 38.426 79.3264 39.8398 79.4192 41.6751C79.4953 43.1797 78.5389 44.5327 77.136 45.0023L76.544 43.4827ZM75.6673 46.1128L76.624 48.5688L77.636 51.1667L74.1209 49.6141L75.6673 46.1128ZM69.4562 37.5173L68.0516 35.7138L69.1065 34.555L71.0664 35.7671C71.3589 35.9479 71.7298 35.9432 72.0177 35.7547C72.589 35.3803 73.2082 35.088 73.8578 34.8858C74.1884 34.7829 74.4286 34.4968 74.473 34.1535L74.7656 31.8877L76.3436 31.808L76.863 34.0327C76.9418 34.3698 77.2098 34.6302 77.5491 34.6993C78.2155 34.8348 78.861 35.0633 79.4674 35.3783C79.7727 35.5368 80.1423 35.5041 80.415 35.2947L82.2427 33.8912L83.409 34.9377L82.1934 36.8738C82.0082 37.1687 82.0131 37.5449 82.2057 37.8349C82.5817 38.4012 82.8752 39.0145 83.078 39.6579C83.1819 39.9879 83.4684 40.227 83.8116 40.2705L86.0966 40.5597L86.1751 42.1119L83.9308 42.63C83.5937 42.7078 83.3328 42.9748 83.2627 43.3134C83.1259 43.974 82.8958 44.6138 82.5787 45.2149C82.4163 45.5229 82.4493 45.8975 82.6632 46.1724L84.0679 47.976L83.0129 49.1348L81.053 47.9227C80.7605 47.7419 80.3897 47.7467 80.1018 47.935C79.6229 48.2488 79.1105 48.5039 78.5751 48.6975L77.7789 46.6535C79.8792 45.9108 81.3033 43.8622 81.1881 41.5857C81.0461 38.7748 78.6301 36.6038 75.8019 36.747C73.4297 36.8668 71.5106 38.5774 71.0372 40.7847L68.9777 39.8817C69.1149 39.3962 69.3034 38.9249 69.5407 38.4749C69.7033 38.1668 69.6702 37.7922 69.4562 37.5173V37.5173ZM55.3028 84.2091C53.57 84.2091 52.1602 82.7994 52.1602 81.0666V76.9994H56.736V84.2091H55.3028ZM58.5077 50.2458L63.296 39.3248L74.5496 44.2589L72.1424 49.7084C71.9706 50.2228 72.1214 50.612 72.5948 50.8766L78.0738 53.2968L76.463 56.9707H73.4487C73.2044 56.9707 72.9709 57.0715 72.8036 57.2495L69.0807 61.2081C68.8981 61.4022 68.8022 61.9198 68.8249 62.1989V70.4018L68.5924 70.4011L58.5077 65.9795V50.2458ZM77.8395 80.7281L76.1412 81.0278C75.7982 81.0884 75.5226 81.3442 75.4367 81.6817C75.304 82.2035 75.0997 82.7018 74.8295 83.1626C74.6546 83.4611 74.6693 83.834 74.8674 84.1176L75.863 85.5438L75.1622 86.2452L73.735 85.2508C73.4512 85.053 73.0781 85.0387 72.7799 85.2138C72.3196 85.4844 71.8214 85.6891 71.2997 85.8224C70.9622 85.9085 70.7067 86.1844 70.6464 86.5275L70.3482 88.2261L69.3458 88.2229L69.0315 86.5102C68.9694 86.1718 68.717 85.9 68.3842 85.8131C67.8602 85.6762 67.3593 85.4677 66.8953 85.1936C66.5974 85.0175 66.224 85.0312 65.9395 85.2287L64.523 86.2121L63.8062 85.4961L64.7884 84.0787C64.9855 83.7942 64.999 83.4209 64.8225 83.123C64.5479 82.6589 64.339 82.1582 64.2017 81.6344C64.1144 81.3017 63.8424 81.0496 63.5039 80.9877L61.791 80.675L61.7869 79.6726L63.485 79.3729C63.828 79.3123 64.1037 79.0565 64.1895 78.7191C64.3223 78.1972 64.5266 77.6989 64.7968 77.2381C64.9717 76.9397 64.9569 76.5667 64.759 76.2831L63.7633 74.857L64.4641 74.1556L65.8911 75.15C66.1748 75.3479 66.5479 75.3622 66.8461 75.1869C67.3069 74.9164 67.8049 74.7116 68.3266 74.5784C68.664 74.4923 68.9196 74.2164 68.9798 73.8733L69.2779 72.1746L70.2803 72.1778L70.5946 73.8905C70.6567 74.2289 70.9091 74.5008 71.2419 74.5877C71.766 74.7246 72.2669 74.933 72.7308 75.2071C73.0289 75.3833 73.4023 75.3696 73.6866 75.172L75.103 74.1886L75.8199 74.9047L74.8376 76.322C74.6404 76.6065 74.627 76.9798 74.8034 77.2778C75.0779 77.7418 75.2869 78.2426 75.4242 78.7663C75.5115 79.099 75.7835 79.3512 76.122 79.4131L77.835 79.7258L77.8395 80.7281ZM85.7541 74.6694C85.7538 73.7972 85.7517 71.6425 85.7517 71.6425C85.7517 70.4973 83.9802 70.4973 83.9802 71.6425V76.005C81.7439 76.0051 79.4608 76.0068 77.2052 76.0166L77.6978 75.3057C77.9418 74.9537 77.8989 74.4773 77.5959 74.1746L75.832 72.4124C75.529 72.1097 75.0527 72.0671 74.7007 72.3115L73.1233 73.4069C72.8371 73.2661 72.5421 73.1435 72.24 73.0397L71.8904 71.1345C71.7788 70.5263 71.1367 70.3297 70.6086 70.4073C70.5941 69.4235 70.7008 64.2794 70.6086 62.7007H83.9803V67.0179C83.9803 68.1631 85.7518 68.1631 85.7518 67.0179C85.7518 67.0179 85.7545 63.6876 85.7545 62.1632L87.7032 60.0913V72.5972L85.7541 74.6694Z" fill="white"/>
<path d="M69.81 76.1769C69.8057 76.1768 69.8013 76.1768 69.7969 76.1768C68.7278 76.1768 67.7244 76.592 66.9704 77.3465C66.2134 78.1043 65.7989 79.1131 65.8032 80.1872C65.8076 81.259 66.2287 82.2676 66.9891 83.0272C67.7494 83.7868 68.7582 84.207 69.83 84.2105H69.8431C70.9123 84.2105 71.9158 83.7952 72.6697 83.0407C73.4268 82.2829 73.8413 81.2741 73.8369 80.2C73.8326 79.1283 73.4114 78.1198 72.6512 77.3601C71.8906 76.6005 70.8817 76.1803 69.81 76.1769V76.1769ZM71.4163 81.7886C70.9954 82.2098 70.4335 82.4454 69.8354 82.4389C69.2345 82.4371 68.6682 82.2009 68.2411 81.774C67.8138 81.3471 67.5771 80.781 67.5746 80.1801C67.5721 79.5816 67.8027 79.02 68.2236 78.5987C68.6444 78.1774 69.2085 77.9444 69.8044 77.9483C70.4053 77.9503 70.9716 78.1864 71.3988 78.6133C71.8261 79.0401 72.0628 79.6062 72.0652 80.2071C72.0677 80.8057 71.8372 81.3672 71.4163 81.7886V81.7886Z" fill="white"/>
<path d="M42.0103 40.1952C42.7538 40.1952 43.1625 39.2091 42.6367 38.6832L39.6164 35.6624C38.8067 34.8525 37.5538 36.1052 38.3637 36.9149L41.3839 39.9358C41.5569 40.1088 41.7836 40.1952 42.0103 40.1952Z" fill="white"/>
<path d="M35.6556 54.15H31.3844C30.2391 54.15 30.2391 55.9215 31.3844 55.9215H35.6557C36.801 55.9215 36.801 54.15 35.6556 54.15V54.15Z" fill="white"/>
<path d="M41.6541 70.024L38.6339 73.0448C37.8241 73.8546 39.0769 75.1073 39.8866 74.2972L42.9068 71.2765C43.7166 70.4666 42.4638 69.2141 41.6541 70.024Z" fill="white"/>
</g>
<defs>
<clipPath id="clip0_4_84">
<rect width="60" height="60" fill="white" transform="translate(30 30)"/>
</clipPath>
</defs>
</svg>
