<svg width="120" height="120" viewBox="0 0 120 120" fill="none" xmlns="http://www.w3.org/2000/svg">
<circle cx="60" cy="60" r="60" fill="#460000"/>
<g clip-path="url(#clip0_4_87)">
<path d="M79.5058 58.267C81.3423 56.1406 81.8765 53.1644 80.8527 50.5185C79.8352 47.8886 77.4262 46.0335 74.6409 45.6938L71.0946 36.5283C69.4539 32.2878 62.8239 34.5392 64.2028 38.9346L57.2363 43.0342V34.1513C57.2363 31.8671 55.3779 30.0087 53.0936 30.0087H34.1427C31.8584 30.0087 30 31.8671 30 34.1513V37.2358C30 38.4773 32.0195 38.2743 31.7578 37.0503V34.1513C31.7578 32.8364 32.8276 31.7665 34.1427 31.7665H53.0938C54.4089 31.7665 55.4787 32.8363 55.4787 34.1513V48.1982C55.4787 49.5132 54.4089 50.5831 53.0938 50.5831H48.8831C48.3977 50.5831 48.0041 50.9766 48.0041 51.462V55.1686L43.3935 50.8225C43.2304 50.6687 43.0148 50.5832 42.7906 50.5832H34.1427C32.8277 50.5832 31.7578 49.5134 31.7578 48.1983V42.1079C32.0026 40.9626 30 40.5569 30 41.9218V48.1983C30 50.4825 31.8584 52.341 34.1427 52.341H41.411C38.4652 53.8246 36.1894 56.4633 35.1485 59.5923C31.3523 61.8592 28.8614 65.643 30.6302 70.2142C31.8378 73.3354 34.9338 75.4711 38.2859 75.4709C39.4175 75.4709 40.4989 75.1709 41.5848 74.8884C43.3173 75.7333 45.1954 76.1628 47.0848 76.1628C48.3912 76.1627 49.6724 75.9289 50.9269 75.5774L55.874 88.2889C56.5649 90.0745 58.939 90.577 60.2876 89.2099L63.4251 86.0292C64.4174 85.0234 64.7287 83.5206 64.2173 82.199L62.719 78.3531C63.8456 77.7135 64.7342 76.7334 65.2669 75.5252C65.7849 74.35 65.9156 73.0706 65.6587 71.8367L75.9376 69.2268C77.9661 73.1971 84.231 70.4791 82.5933 66.2465L79.5058 58.267ZM79.2135 51.1528C79.8808 52.8774 79.6874 54.7846 78.7538 56.323L75.3938 47.6391C77.1189 48.1526 78.5504 49.4391 79.2135 51.1528ZM35.4269 73.0407C33.9759 72.321 32.8547 71.092 32.2696 69.5799C31.2093 66.8396 32.1933 63.6129 34.6097 61.9445C34.3405 64.0163 34.6024 66.1611 35.356 68.1091C36.2067 70.3075 37.6398 72.1983 39.487 73.5994C38.1139 73.8606 36.6929 73.6686 35.4269 73.0407ZM62.1737 84.795L59.0361 87.9757C58.5463 88.4725 57.7357 88.2298 57.5127 87.6532L52.6435 75.1417L58.9452 73.5417L62.5787 82.8355C62.8401 83.5113 62.6811 84.2806 62.1737 84.795ZM63.6583 74.8163C63.3157 75.5935 62.7655 76.2374 62.0707 76.6898L60.6732 73.1029L63.9528 72.2702C64.1142 73.1239 64.016 74.0051 63.6583 74.8163ZM80.9198 68.3278C80.2622 69.8149 78.0154 69.7866 77.4202 68.2483L75.6669 63.7168C75.2568 62.657 73.6175 63.2913 74.0275 64.3512L75.2772 67.5811L50.1279 73.9668C44.1772 75.472 37.9911 72.1412 36.559 66.0234C35.1634 60.0616 38.695 56.0843 43.3818 53.2272L48.28 57.8445C48.8425 58.3746 49.7618 57.9525 49.7618 57.2048V52.3408H53.0937C55.378 52.3408 57.2364 50.4824 57.2364 48.1981V45.0738L64.8379 40.6004L72.36 60.0411C72.7701 61.1008 74.4093 60.4666 73.9993 59.4068L65.9216 38.5297C65.0406 36.253 68.5752 34.8875 69.4554 37.1625L80.954 66.8807C81.1362 67.3521 81.124 67.8658 80.9198 68.3278Z" fill="white"/>
<path d="M89.9407 47.0053C89.7655 46.5525 89.2567 46.3278 88.804 46.5025L84.1349 48.3076C83.0904 48.7116 83.747 50.3417 84.7688 49.9472L89.4379 48.1421C89.8906 47.967 90.1157 47.458 89.9407 47.0053Z" fill="white"/>
<path d="M78.3951 43.8176C78.8107 44.0021 79.3688 43.7903 79.555 43.3709L81.5831 38.8028C82.0442 37.7642 80.4377 37.0511 79.9764 38.0896L77.9484 42.6577C77.7514 43.1014 77.9514 43.6208 78.3951 43.8176Z" fill="white"/>
<path d="M89.2035 58.4978L84.6283 56.4827C83.5882 56.0247 82.8797 57.6333 83.9198 58.0914L88.495 60.1066C89.4962 60.5476 90.2401 58.9543 89.2035 58.4978Z" fill="white"/>
<path d="M51.0314 39.2613C50.8326 38.6494 50.2667 38.2383 49.6233 38.2383H46.1116L45.0264 34.8984C44.8275 34.2865 44.2617 33.8754 43.6182 33.8754C42.9749 33.8754 42.409 34.2865 42.2101 34.8984L41.1248 38.2383H37.6132C36.2342 38.2383 35.6079 40.0922 36.743 40.9166L39.584 42.9808L38.4989 46.3207C38.0796 47.6113 39.6412 48.8013 40.7773 47.9761L43.6183 45.9119L46.4593 47.976C47.5749 48.7864 49.1713 47.655 48.7377 46.3207L47.6525 42.9808L50.4936 40.9167C51.014 40.5384 51.2303 39.8731 51.0314 39.2613ZM46.4564 41.677C45.936 42.0552 45.7198 42.7203 45.9185 43.3324L46.8023 46.0523L44.4887 44.3714C43.968 43.993 43.2685 43.9931 42.7481 44.3713L40.4342 46.0523L41.3181 43.3323C41.5168 42.7203 41.3006 42.0552 40.7802 41.6771L38.4664 39.996H41.3264C41.9697 39.996 42.5355 39.5849 42.7345 38.9729L43.6183 36.2529L44.5021 38.9728C44.7008 39.5847 45.2667 39.996 45.9102 39.996H48.7701L46.4564 41.677Z" fill="white"/>
</g>
<defs>
<clipPath id="clip0_4_87">
<rect width="60" height="60" fill="white" transform="translate(30 30)"/>
</clipPath>
</defs>
</svg>
