<svg width="120" height="120" viewBox="0 0 120 120" fill="none" xmlns="http://www.w3.org/2000/svg">
<circle cx="60" cy="60" r="60" fill="#460000"/>
<g clip-path="url(#clip0_4_89)">
<path d="M88.8254 31.7603C88.7372 31.5016 88.5008 31.2654 88.2421 31.1771C87.9462 31.0761 80.8969 28.7321 72.4646 30.9524C71.3657 31.2418 71.8128 32.9395 72.9122 32.6522C79.7258 30.8581 85.7193 32.2826 87.2806 32.7226C87.5907 33.8177 88.3859 37.084 88.2157 41.263C87.9524 47.7313 85.3603 53.8375 80.8653 58.4986C76.2608 57.0162 72.251 53.3948 69.2437 50.3677C63.8351 44.9594 61.9886 40.5304 61.505 39.134C63.6752 37.0425 66.0984 35.3708 68.7145 34.161C69.7459 33.6839 69.0083 32.0893 67.9767 32.5656C66.4425 33.275 64.9722 34.1335 63.575 35.1309C62.4944 34.819 61.1152 34.8683 59.9987 34.8683C53.2848 34.8683 46.9727 37.4829 42.2252 42.2302C37.4778 46.9776 34.8633 53.2898 34.8633 60.0037C34.8633 60.7672 34.8994 61.5368 34.9678 62.2947C33.4704 65.97 32.1779 70.4664 31.9687 71.205C31.7866 71.8489 32.4019 72.4743 33.0537 72.2901C33.07 72.2855 33.6335 72.1254 34.5206 71.8561C31.7762 77.7277 30.0891 88.4832 30.011 88.9889C29.9252 89.5437 30.4845 90.0728 31.0139 89.9918C31.0345 89.9887 33.1111 89.6658 35.8932 89.0915C37.0062 88.862 36.6505 87.1394 35.5381 87.3702C34.075 87.6721 32.8118 87.9033 31.9502 88.0533C32.5418 84.669 34.3892 75.0671 36.9207 71.1011C38.1312 70.7066 39.4929 70.2407 40.8008 69.7456C40.9351 70.4862 41.1414 71.2181 41.421 71.9314C40.0243 75.4843 38.8529 79.5601 38.6547 80.2602C38.4727 80.9041 39.0878 81.5295 39.7397 81.3452C40.4399 81.1471 44.5163 79.9755 48.0694 78.5789C48.7829 78.8587 49.5147 79.0644 50.2553 79.1986C49.7593 80.5089 49.2926 81.873 48.8975 83.085C47.1822 84.1766 44.1141 85.3025 39.9848 86.3526C38.8982 86.6288 39.3655 88.3247 40.4181 88.0561C43.666 87.2302 46.2508 86.3688 48.1427 85.4843C47.8744 86.368 47.7151 86.9292 47.7104 86.9455C47.5283 87.5894 48.1436 88.2146 48.7954 88.0304C49.5396 87.8198 54.0975 86.5098 57.7876 84.9985C58.3611 85.2409 59.4262 85.1392 59.9992 85.1392C66.7131 85.1392 73.0252 82.5247 77.7727 77.7773C82.5201 73.0299 85.1346 66.7177 85.1346 60.0038C85.1346 58.8021 85.0483 57.5949 84.8795 56.4139C88.7419 50.9845 89.8182 45.357 89.9752 41.2631C90.184 35.8133 88.881 31.9233 88.8254 31.7603ZM59.9991 36.6259C60.5311 36.6259 61.0646 36.6441 61.596 36.6799C61.0169 37.1752 60.4523 37.6956 59.9044 38.2426C59.5274 38.5857 52.2622 45.2758 45.1211 56.7538C42.6572 55.3463 39.4854 55.7299 37.4278 57.7871C37.1755 58.0394 36.9152 58.3901 36.6514 58.8143C37.2727 46.4743 47.5073 36.6259 59.9991 36.6259ZM34.1142 70.1427C35.2033 66.557 37.2691 60.4315 38.6705 59.0302C40.1507 57.5501 42.4249 57.2645 44.2049 58.2558C43.4779 59.47 42.7551 60.7321 42.0444 62.043C41.0493 63.8786 40.5696 65.9083 40.6166 67.934C38.2961 68.8337 35.7115 69.6563 34.1142 70.1427ZM45.356 68.0852C47.1415 66.3 50.1299 66.3 51.9154 68.0852C53.7031 69.873 53.7031 72.8562 51.9154 74.644C50.5135 76.046 44.3841 78.1124 40.7988 79.2013C41.8875 75.616 43.9541 69.4871 45.356 68.0852ZM53.1581 75.8869C55.6196 73.4257 55.6204 69.3042 53.1581 66.8422C50.6649 64.3488 46.607 64.3488 44.1131 66.8422C43.6027 67.3526 43.0597 68.2636 42.5214 69.3795C42.1351 67.1803 42.4983 64.8937 43.5898 62.8806C50.0551 50.9549 57.504 43.0568 60.1234 40.4664C60.9479 42.5199 63.0594 46.669 67.9993 51.6086C70.9751 54.6041 74.9075 58.161 79.5235 59.8908C77.2763 62.163 70.9185 67.7584 61.7481 73.7398C60.3506 74.6514 58.5016 75.6615 57.1202 76.4104C55.1056 77.5024 52.8193 77.8655 50.6201 77.4791C51.7363 76.9406 52.6476 76.3975 53.1581 75.8869ZM52.0674 79.3813C54.1133 79.4282 56.1582 78.931 57.9578 77.9555C59.269 77.2448 60.5315 76.5219 61.7459 75.7948C62.743 77.5756 62.4632 79.837 60.9711 81.329C59.5695 82.7304 53.4436 84.7961 49.8577 85.8852C50.016 85.3653 51.4983 80.8488 52.0674 79.3813ZM83.3767 60.0036C83.3767 72.4977 73.5247 82.7336 61.1814 83.3515C61.608 83.0867 61.9606 82.8254 62.2139 82.572C64.2881 80.498 64.6629 77.345 63.2472 74.8792C74.7237 67.74 81.4137 60.4767 81.7595 60.097C82.3161 59.5394 82.8359 58.9751 83.3221 58.4062C83.3579 58.9377 83.3767 59.4711 83.3767 60.0036Z" fill="white"/>
<path d="M61.0302 65.1539C62.6144 65.1539 64.1986 64.5509 65.4045 63.345C67.7855 60.9642 67.786 56.9779 65.4045 54.5966C62.9927 52.1848 59.0678 52.1848 56.656 54.5966C54.2751 56.9775 54.2743 60.9635 56.656 63.345C57.8619 64.5509 59.4461 65.1539 61.0302 65.1539ZM57.8987 55.8395C59.6034 54.135 62.4568 54.1348 64.1616 55.8395C65.8686 57.5464 65.8689 60.3951 64.1617 62.1019C62.4349 63.8285 59.6255 63.8285 57.8987 62.1019C56.1916 60.3948 56.1916 57.5467 57.8987 55.8395Z" fill="white"/>
</g>
<defs>
<clipPath id="clip0_4_89">
<rect width="60" height="60" fill="white" transform="translate(30 30)"/>
</clipPath>
</defs>
</svg>
